<svg xmlns="http://www.w3.org/2000/svg" viewBox="-21 -652 2875 682" role="img" aria-label="Wedison Athena"><title>Wedison Athena</title><path fill="#245c45" d="M957.0 -594.0Q957.0 -575.0 939.0 -549.0Q783.0 -308.0 684.0 -77.0Q669.0 -41.0 646.5 -24.5Q624.0 -8.0 582.0 5.0Q555.0 14.0 538.0 14.0Q503.0 14.0 503.0 -24.0L506.0 -48.0Q521.0 -136.0 521.0 -188.0Q521.0 -254.0 503.0 -305.0L453.0 -212.0Q456.0 -212.0 463.0 -212.5Q470.0 -213.0 474.0 -213.0Q483.0 -213.0 488.5 -206.5Q494.0 -200.0 494.0 -191.0Q494.0 -162.0 444.0 -162.0H427.0Q324.0 18.0 151.0 18.0Q82.0 18.0 36.5 -20.5Q-9.0 -59.0 -9.0 -126.0Q-9.0 -176.0 21.0 -213.0Q51.0 -250.0 100.0 -250.0Q130.0 -250.0 149.5 -233.0Q169.0 -216.0 169.0 -186.0Q169.0 -162.0 157.0 -145.5Q145.0 -129.0 130.5 -122.5Q116.0 -116.0 104.0 -106.5Q92.0 -97.0 92.0 -85.0Q92.0 -66.0 109.0 -58.0Q126.0 -50.0 146.0 -50.0Q231.0 -50.0 324.0 -182.0Q271.0 -201.0 238.0 -239.0Q205.0 -277.0 205.0 -330.0Q205.0 -391.0 248.5 -429.5Q292.0 -468.0 353.0 -468.0Q430.0 -468.0 487.0 -419.0Q571.0 -521.0 660.0 -580.5Q749.0 -640.0 859.0 -640.0Q957.0 -640.0 957.0 -594.0ZM833.0 -581.0Q833.0 -591.0 817.0 -591.0Q815.0 -591.0 811.5 -590.5Q808.0 -590.0 807.0 -590.0Q762.0 -583.0 721.5 -561.0Q681.0 -539.0 646.0 -502.5Q611.0 -466.0 587.5 -435.0Q564.0 -404.0 534.0 -358.0Q570.0 -289.0 570.0 -191.0Q570.0 -174.0 568.0 -142.0Q630.0 -292.0 768.0 -486.0Q771.0 -490.0 788.5 -513.0Q806.0 -536.0 819.5 -556.0Q833.0 -576.0 833.0 -581.0ZM457.0 -380.0Q411.0 -424.0 352.0 -424.0Q312.0 -424.0 284.0 -397.0Q256.0 -370.0 256.0 -331.0Q256.0 -292.0 283.0 -265.0Q310.0 -238.0 351.0 -225.0Q406.0 -313.0 457.0 -380.0Z M1149.0 -358.0Q1149.0 -343.0 1137.0 -331.5Q1125.0 -320.0 1110.0 -320.0H1049.0Q952.0 -120.0 952.0 -105.0Q952.0 -94.0 963.0 -94.0Q970.0 -94.0 978.5 -97.5Q987.0 -101.0 996.5 -108.5Q1006.0 -116.0 1013.0 -121.5Q1020.0 -127.0 1031.5 -139.5Q1043.0 -152.0 1047.0 -156.5Q1051.0 -161.0 1063.0 -174.0L1074.0 -188.0Q1080.0 -195.0 1088.0 -195.0Q1097.0 -195.0 1102.5 -189.0Q1108.0 -183.0 1108.0 -174.0Q1108.0 -164.0 1100.0 -154.0Q1067.0 -112.0 1049.0 -95.0Q954.0 0.0 872.0 0.0Q805.0 0.0 805.0 -61.0Q805.0 -69.0 806.5 -78.5Q808.0 -88.0 812.5 -99.5Q817.0 -111.0 820.5 -120.0Q824.0 -129.0 831.0 -142.5Q838.0 -156.0 842.0 -163.5Q846.0 -171.0 855.0 -185.0Q864.0 -199.0 867.0 -204.0Q870.0 -209.0 879.0 -223.5Q888.0 -238.0 889.0 -239.0L885.0 -241.0Q844.0 -183.0 805.0 -135.0Q799.0 -126.0 787.0 -126.0Q768.0 -126.0 768.0 -147.0Q768.0 -156.0 774.0 -164.0Q787.0 -180.0 812.5 -211.0Q838.0 -242.0 859.0 -269.0Q880.0 -296.0 898.0 -320.0H885.0Q856.0 -320.0 856.0 -343.0Q856.0 -348.0 857.0 -351.0Q865.0 -381.0 909.0 -381.0H942.0Q958.0 -404.0 986.5 -448.0Q1015.0 -492.0 1026.0 -508.0Q1041.0 -525.0 1050.0 -525.0Q1069.0 -525.0 1086.0 -498.0Q1103.0 -471.0 1103.0 -451.0Q1103.0 -427.0 1079.0 -381.0H1125.0Q1135.0 -381.0 1142.0 -374.5Q1149.0 -368.0 1149.0 -358.0Z M1582.0 -179.0Q1582.0 -166.0 1573.0 -154.0Q1542.0 -115.0 1518.0 -90.0Q1469.0 -38.0 1428.0 -17.0Q1398.0 -1.0 1364.0 -1.0Q1337.0 -1.0 1321.5 -16.0Q1306.0 -31.0 1306.0 -58.0Q1306.0 -92.0 1344.5 -166.0Q1383.0 -240.0 1383.0 -244.0Q1383.0 -251.0 1377.0 -251.0Q1360.0 -251.0 1294.0 -175.0Q1228.0 -99.0 1193.0 -51.0Q1155.0 0.0 1110.0 0.0Q1072.0 0.0 1072.0 -27.0Q1072.0 -38.0 1078.0 -49.0L1177.0 -245.0L1174.0 -248.0Q1104.0 -156.0 1086.0 -136.0Q1080.0 -130.0 1071.0 -130.0Q1062.0 -130.0 1056.5 -136.0Q1051.0 -142.0 1051.0 -151.0Q1051.0 -159.0 1060.0 -172.0Q1128.0 -258.0 1167.0 -313.0Q1248.0 -430.0 1326.0 -577.0Q1343.0 -608.0 1361.0 -608.0Q1384.0 -608.0 1402.0 -576.5Q1420.0 -545.0 1420.0 -521.0Q1420.0 -501.0 1409.0 -477.0Q1371.0 -390.0 1288.0 -237.0Q1334.0 -287.0 1397.5 -338.5Q1461.0 -390.0 1500.0 -390.0Q1520.0 -390.0 1532.5 -377.0Q1545.0 -364.0 1545.0 -344.0Q1545.0 -335.0 1541.5 -322.5Q1538.0 -310.0 1534.5 -302.5Q1531.0 -295.0 1523.5 -280.5Q1516.0 -266.0 1515.0 -263.0Q1468.0 -171.0 1452.0 -120.0Q1450.0 -114.0 1450.0 -109.0Q1450.0 -100.0 1458.0 -100.0Q1463.0 -100.0 1470.5 -105.0Q1478.0 -110.0 1488.5 -121.0Q1499.0 -132.0 1507.0 -141.0Q1515.0 -150.0 1528.0 -166.0Q1541.0 -182.0 1546.0 -188.0Q1554.0 -197.0 1565.0 -197.0Q1582.0 -197.0 1582.0 -179.0Z M1929.0 -183.0Q1929.0 -173.0 1920.0 -162.0Q1890.0 -123.0 1862.0 -96.0Q1764.0 -1.0 1652.0 -1.0Q1602.0 -1.0 1572.5 -24.5Q1543.0 -48.0 1543.0 -97.0Q1543.0 -117.0 1547.0 -132.0H1545.0Q1542.0 -131.0 1540.0 -131.0Q1532.0 -131.0 1527.0 -135.0Q1521.0 -141.0 1521.0 -148.0Q1521.0 -156.0 1530.0 -170.0L1548.0 -192.0Q1585.0 -236.0 1605.5 -259.0Q1626.0 -282.0 1665.0 -319.0Q1704.0 -356.0 1741.0 -373.0Q1778.0 -390.0 1815.0 -390.0Q1851.0 -390.0 1872.5 -372.5Q1894.0 -355.0 1894.0 -321.0Q1894.0 -277.0 1855.0 -233.0Q1816.0 -189.0 1772.5 -163.0Q1729.0 -137.0 1683.0 -117.0Q1682.0 -114.0 1682.0 -105.0Q1682.0 -68.0 1713.0 -68.0Q1778.0 -68.0 1856.0 -153.0Q1870.0 -167.0 1892.0 -193.0Q1901.0 -202.0 1911.0 -202.0Q1929.0 -202.0 1929.0 -183.0ZM1830.0 -324.0Q1830.0 -337.0 1819.0 -337.0Q1795.0 -337.0 1753.0 -270.0Q1711.0 -203.0 1697.0 -165.0Q1738.0 -186.0 1784.0 -236.0Q1830.0 -286.0 1830.0 -324.0Z M2396.0 -176.0Q2396.0 -166.0 2385.0 -153.0Q2359.0 -117.0 2313.0 -73.0Q2267.0 -29.0 2241.0 -17.0Q2212.0 0.0 2177.0 0.0Q2150.0 0.0 2134.5 -15.0Q2119.0 -30.0 2119.0 -57.0Q2119.0 -92.0 2157.5 -166.0Q2196.0 -240.0 2196.0 -243.0Q2196.0 -250.0 2190.0 -250.0Q2173.0 -250.0 2106.5 -173.5Q2040.0 -97.0 2006.0 -51.0Q1968.0 0.0 1923.0 0.0Q1883.0 0.0 1883.0 -27.0Q1883.0 -33.0 1890.0 -49.0L1989.0 -240.0L1985.0 -243.0Q1981.0 -238.0 1949.5 -198.0Q1918.0 -158.0 1898.0 -136.0Q1892.0 -130.0 1882.0 -130.0Q1864.0 -130.0 1864.0 -150.0Q1864.0 -159.0 1872.0 -170.0L1957.0 -274.0Q2022.0 -358.0 2039.0 -377.0Q2055.0 -396.0 2073.0 -396.0Q2095.0 -396.0 2112.5 -369.5Q2130.0 -343.0 2130.0 -320.0Q2130.0 -311.0 2128.0 -302.0Q2126.0 -293.0 2120.5 -281.0Q2115.0 -269.0 2112.5 -263.5Q2110.0 -258.0 2101.5 -243.5Q2093.0 -229.0 2092.0 -227.0Q2247.0 -389.0 2313.0 -389.0Q2333.0 -389.0 2345.5 -376.0Q2358.0 -363.0 2358.0 -344.0Q2358.0 -322.0 2327.0 -263.0Q2278.0 -164.0 2265.0 -120.0Q2263.0 -112.0 2263.0 -109.0Q2263.0 -101.0 2269.0 -101.0Q2273.0 -101.0 2279.5 -104.5Q2286.0 -108.0 2293.5 -115.0Q2301.0 -122.0 2308.5 -129.5Q2316.0 -137.0 2324.5 -146.5Q2333.0 -156.0 2338.5 -163.0Q2344.0 -170.0 2351.0 -178.5Q2358.0 -187.0 2360.0 -189.0Q2366.0 -196.0 2377.0 -196.0Q2385.0 -196.0 2390.5 -190.0Q2396.0 -184.0 2396.0 -176.0Z M2842.0 -176.0Q2842.0 -170.0 2834.0 -156.0Q2715.0 0.0 2625.0 0.0Q2596.0 0.0 2579.5 -16.0Q2563.0 -32.0 2563.0 -61.0Q2563.0 -73.0 2566.0 -85.0Q2475.0 -1.0 2411.0 -1.0Q2379.0 -1.0 2363.5 -21.5Q2348.0 -42.0 2348.0 -74.0Q2348.0 -103.0 2361.0 -130.0Q2339.0 -132.0 2338.0 -150.0V-151.0V-152.0Q2338.0 -164.0 2350.0 -177.0Q2423.0 -263.0 2441.0 -281.0Q2474.0 -314.0 2497.0 -333.5Q2520.0 -353.0 2557.5 -371.0Q2595.0 -389.0 2632.0 -389.0Q2680.0 -389.0 2694.0 -358.0Q2694.0 -359.0 2701.0 -375.0Q2708.0 -391.0 2712.0 -399.0Q2716.0 -407.0 2723.5 -420.0Q2731.0 -433.0 2739.0 -439.0Q2747.0 -445.0 2756.0 -445.0Q2779.0 -445.0 2796.5 -414.5Q2814.0 -384.0 2814.0 -359.0Q2814.0 -339.0 2803.0 -315.0Q2793.0 -294.0 2772.0 -254.5Q2751.0 -215.0 2736.0 -182.5Q2721.0 -150.0 2711.0 -120.0Q2709.0 -112.0 2709.0 -109.0Q2709.0 -101.0 2715.0 -101.0Q2719.0 -101.0 2725.0 -104.0Q2731.0 -107.0 2738.0 -113.5Q2745.0 -120.0 2751.5 -126.0Q2758.0 -132.0 2766.5 -142.0Q2775.0 -152.0 2780.0 -158.0Q2785.0 -164.0 2794.0 -174.0Q2803.0 -184.0 2805.0 -187.0Q2814.0 -196.0 2821.0 -196.0H2822.0H2823.0Q2842.0 -194.0 2842.0 -176.0ZM2662.0 -295.0Q2662.0 -317.0 2640.0 -317.0Q2609.0 -317.0 2555.0 -232.0Q2501.0 -147.0 2501.0 -112.0Q2501.0 -98.0 2512.0 -98.0Q2545.0 -98.0 2603.5 -179.0Q2662.0 -260.0 2662.0 -295.0Z"/></svg>